<svg width="11" height="23" viewBox="0 0 11 23" fill="none" xmlns="http://www.w3.org/2000/svg">
<path d="M5.5462 22.4123C2.07533 22.4116 0.00199791 20.073 0 16.1569L0.0204788 4.05126C0.020229 3.73609 0.07667 2.62126 0.806157 1.57585C1.30788 0.856854 2.26463 0 3.9736 0C3.9736 0 3.97559 0 3.97734 0C5.72601 0 6.67652 0.797416 7.16576 1.46672C7.86952 2.42921 7.94519 3.54979 7.94494 3.98683L7.92596 16.1611C7.92621 16.6104 7.92721 17.6665 7.20172 18.392C6.75843 18.8353 6.14607 19.0601 5.38237 19.0601C5.38062 19.0598 5.37888 19.0598 5.37713 19.0601C3.93663 19.0601 3.07553 17.9742 3.07404 16.1554L3.06754 4.03328C3.06729 3.61947 3.40269 3.28382 3.81626 3.28357H3.81676C4.23033 3.28357 4.56573 3.61872 4.56598 4.03228L4.57222 16.1544C4.57322 17.5487 5.12714 17.5616 5.37163 17.5616C5.37513 17.5616 5.37838 17.5616 5.38087 17.5616C5.734 17.5616 5.98974 17.4845 6.14183 17.3324C6.42803 17.0462 6.42753 16.4481 6.42728 16.1606L6.44626 3.98558C6.44626 3.69688 6.39906 2.95741 5.95577 2.35154C5.54221 1.78563 4.87615 1.49868 3.97659 1.49868C3.97584 1.49868 3.97509 1.49868 3.97434 1.49868H3.97385C3.11974 1.49868 2.46767 1.8131 2.03462 2.43346C1.65352 2.97988 1.51841 3.64694 1.51866 4.05226L1.49818 16.1576C1.49918 17.9325 2.02613 20.9131 5.54595 20.9139C8.81528 20.9134 9.50157 18.3288 9.50157 16.1609L9.46985 6.12934C9.4686 5.71552 9.803 5.37888 10.2166 5.37763C10.2173 5.37763 10.2183 5.37763 10.2191 5.37763C10.6316 5.37763 10.967 5.71153 10.9683 6.12435L11 16.1584C11 20.1332 9.01208 22.4118 5.5462 22.4123Z" fill="#555555"/>
</svg>
