<svg width="22" height="6" viewBox="0 0 22 6" fill="none" xmlns="http://www.w3.org/2000/svg">
<path d="M10.9855 5.82093C12.3822 5.82093 13.5144 4.68868 13.5144 3.29198C13.5144 1.89528 12.3822 0.763031 10.9855 0.763031C9.58879 0.763031 8.45654 1.89528 8.45654 3.29198C8.45654 4.68868 9.58879 5.82093 10.9855 5.82093Z" fill="#555555"/>
<path d="M18.747 5.82093C20.1437 5.82093 21.2759 4.68868 21.2759 3.29198C21.2759 1.89528 20.1437 0.763031 18.747 0.763031C17.3503 0.763031 16.218 1.89528 16.218 3.29198C16.218 4.68868 17.3503 5.82093 18.747 5.82093Z" fill="#555555"/>
<path d="M3.22426 5.82093C4.62096 5.82093 5.75321 4.68868 5.75321 3.29198C5.75321 1.89528 4.62096 0.763031 3.22426 0.763031C1.82756 0.763031 0.695312 1.89528 0.695312 3.29198C0.695312 4.68868 1.82756 5.82093 3.22426 5.82093Z" fill="#555555"/>
</svg>
