<svg width="21" height="19" viewBox="0 0 21 19" fill="none" xmlns="http://www.w3.org/2000/svg">
<path d="M16.1664 6.65635C15.8697 6.39263 13.9907 4.84327 10.2326 4.61252V1.15118C10.2299 0.957615 10.1705 0.769106 10.0616 0.60902C9.95276 0.448935 9.79933 0.324314 9.62033 0.250607C9.44133 0.1769 9.24463 0.157349 9.05462 0.194378C8.86461 0.231406 8.68965 0.323385 8.55142 0.458913L1.1013 7.8431C0.9201 8.02796 0.818604 8.2765 0.818604 8.53537C0.818604 8.79423 0.9201 9.04277 1.1013 9.22763L8.55142 16.7107C8.68965 16.8462 8.86461 16.9382 9.05462 16.9752C9.24463 17.0123 9.44133 16.9927 9.62033 16.919C9.79933 16.8453 9.95276 16.7207 10.0616 16.5606C10.1705 16.4005 10.2299 16.212 10.2326 16.0184V12.3923C11.9139 12.3593 15.1115 12.9527 17.6498 17.2052L18.0783 17.9634C18.1652 18.1138 18.2901 18.2387 18.4406 18.3255C18.5911 18.4123 18.7617 18.458 18.9354 18.4579H19.1003C19.2966 18.4213 19.4773 18.3261 19.6185 18.1849C19.7597 18.0437 19.8549 17.863 19.8914 17.6667L20.0562 16.8096C20.0892 16.7107 21.1441 10.8429 16.1664 6.65635ZM13.3643 10.9418C12.3902 10.5969 11.3649 10.4186 10.3315 10.4144C9.92299 10.4151 9.51515 10.4482 9.11182 10.5133C8.87902 10.5526 8.66797 10.6739 8.51682 10.8553C8.36567 11.0367 8.2844 11.2661 8.2877 11.5022V13.645L3.21107 8.53537L8.2877 3.52467V5.60147C8.2877 5.86376 8.39189 6.1153 8.57736 6.30077C8.76282 6.48623 9.01436 6.59042 9.27665 6.59042H9.37555C13.1006 6.59042 14.7818 8.07385 14.8478 8.13978H14.8807C15.8313 8.91557 16.6138 9.87688 17.1806 10.9651C17.7473 12.0533 18.0864 13.2455 18.1772 14.4691C16.9432 12.8573 15.2729 11.6332 13.3643 10.9418Z" fill="#555555"/>
</svg>
