<svg width="31" height="31" viewBox="0 0 31 31" fill="none" xmlns="http://www.w3.org/2000/svg">
<path d="M21.826 20.167C25.7735 15.4772 25.5479 8.4466 21.1347 4.03336C18.8778 1.77627 15.8771 0.533325 12.6854 0.533325C9.49339 0.533325 6.49271 1.77627 4.23588 4.03336C1.97878 6.2902 0.73584 9.29085 0.73584 12.4829C0.73584 15.6746 1.97878 18.6753 4.23588 20.9321C6.56514 23.2611 9.62563 24.4264 12.6854 24.4264C15.4222 24.4264 18.1552 23.4873 20.3695 21.6234L28.8469 30.1008C29.0478 30.302 29.3116 30.4026 29.5751 30.4026C29.8386 30.4026 30.1024 30.302 30.3033 30.1008C30.7057 29.6987 30.7057 29.0464 30.3033 28.6444L21.826 20.167ZM19.6782 19.4757C15.8223 23.332 9.54818 23.3315 5.69232 19.4757C3.82452 17.6078 2.79578 15.1242 2.79578 12.4829C2.79578 9.84129 3.82452 7.35765 5.69232 5.48981C7.56015 3.62197 10.0438 2.59327 12.6854 2.59327C15.3267 2.59327 17.8103 3.62197 19.6782 5.48981C23.534 9.34568 23.534 15.6198 19.6782 19.4757Z" fill="#555555"/>
</svg>
