<svg width="14" height="19" viewBox="0 0 14 19" fill="none" xmlns="http://www.w3.org/2000/svg">
<path d="M13.1787 2.39159H9.39926C9.33945 1.78476 9.05607 1.22187 8.60424 0.81239C8.15241 0.402911 7.56444 0.176117 6.95467 0.176117C6.34489 0.176117 5.75692 0.402911 5.30509 0.81239C4.85326 1.22187 4.56988 1.78476 4.51007 2.39159H0.730615C0.536844 2.39159 0.351009 2.46857 0.213992 2.60559C0.0769753 2.7426 0 2.92844 0 3.12221C0 3.31598 0.0769753 3.50181 0.213992 3.63883C0.351009 3.77585 0.536844 3.85282 0.730615 3.85282H13.1787C13.3725 3.85282 13.5583 3.77585 13.6953 3.63883C13.8324 3.50181 13.9093 3.31598 13.9093 3.12221C13.9093 2.92844 13.8324 2.7426 13.6953 2.60559C13.5583 2.46857 13.3725 2.39159 13.1787 2.39159ZM6.95467 1.14362C7.30754 1.14445 7.64872 1.27024 7.91766 1.4987C8.1866 1.72716 8.36592 2.0435 8.42379 2.39159H5.48554C5.54342 2.0435 5.72273 1.72716 5.99167 1.4987C6.26061 1.27024 6.60179 1.14445 6.95467 1.14362Z" fill="#555555"/>
<path d="M12.3177 4.72562H1.59148C1.50746 4.72536 1.42431 4.74252 1.34725 4.776C1.27019 4.80949 1.20091 4.85857 1.14377 4.92017C1.08662 4.98176 1.04286 5.05453 1.01525 5.13388C0.987626 5.21323 0.976748 5.29744 0.983295 5.3812L1.93902 17.6753C1.94997 17.8283 2.01832 17.9714 2.13037 18.0762C2.24241 18.1809 2.38989 18.2394 2.54326 18.24H11.3659C11.5193 18.2394 11.6668 18.1809 11.7788 18.0762C11.8909 17.9714 11.9592 17.8283 11.9702 17.6753L12.9259 5.3812C12.9324 5.29744 12.9216 5.21323 12.8939 5.13388C12.8663 5.05453 12.8226 4.98176 12.7654 4.92017C12.7083 4.85857 12.639 4.80949 12.5619 4.776C12.4849 4.74252 12.4017 4.72536 12.3177 4.72562Z" fill="#555555"/>
</svg>
